<svg xmlns="http://www.w3.org/2000/svg" viewBox="0 0 64 64" role="img" aria-labelledby="title desc">
  <title id="title">Internet Explorer Icon</title>
  <desc id="desc">Retro blue e with a gold ring</desc>
  <defs>
    <radialGradient id="g" cx="34" cy="26" r="26" gradientUnits="userSpaceOnUse">
      <stop offset="0" stop-color="#8bd0ff"/>
      <stop offset="1" stop-color="#1e5fbf"/>
    </radialGradient>
  </defs>
  <ellipse cx="31" cy="34" rx="23" ry="12" fill="none" stroke="#f4b400" stroke-width="6" transform="rotate(-18 31 34)"/>
  <path d="M47 40c-2.3 6.8-8.4 11-16 11-10.5 0-19-8.5-19-19s8.5-19 19-19c7.4 0 13.6 4.2 16 10.5h-9.4c-1.6-1.7-3.9-2.8-6.6-2.8-4.8 0-8.7 3.9-8.7 8.7h25.1c.2.9.3 1.7.3 2.6 0 1.6-.2 3.1-.7 4.6H22.7c1.5 3.5 5 6 9.3 6 2.7 0 5-1 6.6-2.7H47z" fill="url(#g)"/>
  <path d="M12 34h17" stroke="#ffffff" stroke-width="2" opacity="0.8"/>
</svg>
